<?xml version="1.0" encoding="iso-8859-1"?>
<!-- Uploaded to: SVG Repo, www.svgrepo.com, Generator: SVG Repo Mixer Tools -->
<svg height="800px" width="800px" version="1.1" id="Layer_1" xmlns="http://www.w3.org/2000/svg" xmlns:xlink="http://www.w3.org/1999/xlink" 
	 viewBox="0 0 512 512" xml:space="preserve">
<path style="fill:#EDEDED;" d="M512,256c0,141.384-114.616,256-256,256S0,397.384,0,256S114.616,0,256,0S512,114.616,512,256z"/>
<path style="fill:#C6C6C6;" d="M456.348,256c0,110.649-89.699,200.348-200.348,200.348S55.652,366.649,55.652,256
	S145.351,55.652,256,55.652S456.348,145.351,456.348,256z"/>
<path style="fill:#969696;" d="M453.789,288.108C438.424,383.494,355.72,456.348,256,456.348
	c-110.976,0-200.349-89.373-200.348-200.349c0.001-99.72,72.855-182.422,168.24-197.788C240.75,55.495,256,68.645,256,85.719l0,0
	c0,13.703-9.99,25.276-23.512,27.485c-0.401,0.066-0.798,0.141-1.198,0.209c8.031-1.381,16.284-2.109,24.71-2.109
	c79.913,0,144.696,64.782,144.696,144.696c0,8.422-0.728,16.673-2.109,24.702c0.068-0.397,0.144-0.791,0.208-1.19
	C401.005,265.99,412.578,256,426.281,256l0,0C443.355,256,456.504,271.25,453.789,288.108z"/>
<path style="fill:#EDEDED;" d="M345.043,256c0,49.178-39.866,89.043-89.043,89.043c-7.5,0-14.779-0.938-21.737-2.685
	c0.216,0.055,0.427,0.118,0.644,0.171C247.322,345.545,256,356.753,256,369.527c0,17.995-16.836,31.327-34.321,27.074
	C158.333,381.192,111.304,324.088,111.304,256s47.028-125.192,110.375-140.601c17.485-4.253,34.321,9.079,34.321,27.074l0,0
	c0,12.774-8.68,23.982-21.092,26.997c-0.217,0.052-0.43,0.117-0.647,0.171c6.959-1.746,14.238-2.685,21.739-2.685
	C305.178,166.957,345.043,206.822,345.043,256z"/>
<path style="fill:#98C7E5;" d="M512,256c0,141.384-114.615,255.999-255.998,256C114.962,512.001-0.001,397.037,0,255.998
	C0.001,125.038,98.339,17.045,225.201,1.834C241.589-0.131,256,12.724,256,29.231v0.5c0,14.044-10.572,25.705-24.514,27.405
	c-2.381,0.291-4.744,0.636-7.098,1.008C241.047,55.765,256,68.813,256,85.719l0,0c0,13.703-9.99,25.276-23.512,27.485
	c-3.56,0.582-7.073,1.3-10.541,2.137C239.335,111.29,256,124.571,256,142.473l0,0c0,12.774-8.68,23.982-21.092,26.997
	c-38.997,9.472-67.951,44.62-67.951,86.53s28.955,77.058,67.951,86.53C247.322,345.545,256,356.753,256,369.527
	c0,17.292-15.548,30.269-32.278,27.483v0.079c9.275,5.091,21.182,5.772,32.279,6.018c79.303,1.762,135.504-55.003,146.736-123.734
	C404.946,265.852,412.58,256,426.281,256l0,0c16.551,0,29.413,14.33,27.713,30.563c1.594-10.302,2.406-20.853,2.352-31.595
	c-0.233-46.172-16.083-88.649-42.541-122.421c-8.634-11.021-7.563-26.789,2.336-36.689l0,0
	c11.796-11.796,31.279-10.659,41.561,2.478C491.721,141.796,512,196.53,512,256z"/>
<path style="fill:#FFDB57;" d="M256,456.348L256,456.348c-110.976,0-200.349-89.373-200.348-200.349
	c0.001-99.72,72.855-182.422,168.24-197.788C240.75,55.495,256,68.645,256,85.719l0,0c0,13.703-9.99,25.276-23.512,27.485
	c-3.56,0.582-7.073,1.3-10.541,2.137C239.335,111.29,256,124.571,256,142.473l0,0c0,12.774-8.68,23.982-21.092,26.997
	c-38.997,9.472-67.951,44.62-67.951,86.53s28.955,77.058,67.951,86.53C247.322,345.545,256,356.753,256,369.527
	c0,17.292-15.548,30.269-32.278,27.483v0.079c10.377,2.357,21.179,3.607,32.278,3.607V456.348z"/>
<path style="fill:#FF6029;" d="M398.795,279.512C401.005,265.99,412.578,256,426.281,256l0,0c17.074,0,30.224,15.25,27.508,32.108
	C438.424,383.494,355.72,456.348,256,456.348c-110.976,0-200.349-89.373-200.348-200.349c0.001-99.72,72.855-182.422,168.24-197.788
	C240.75,55.496,256,68.645,256,85.719l0,0c0,13.703-9.99,25.276-23.512,27.485c-68.73,11.231-121.181,70.885-121.184,142.791
	c-0.002,80.019,64.679,144.701,144.697,144.7C327.908,400.696,387.564,348.242,398.795,279.512z"/>
</svg>